# xmcd CD database file
# Copyright (C) 1993-1998 Ti Kan
# 
# Track frame offsets:
#     150
#     24090
#     43525
#     58817
#     75785
#     97177
#     108275
#     132822
#     151790
#     169217
#     180307
#     195012
#     212102
#     229270
#     241207
#     251805
#     269135
# 
# Disc length: 3843 seconds
# 
# Revision: 1
# Processed by: cddbd v1.4b41PL1 Copyright (c) Steve Scherf et al.
# Submitted via: DiscPlay 4.0.4
# 
DISCID=d60f0111
DTITLE=Fred Zimmerle and Trio San Antonio - Los Pinguinos Del Norte
DYEAR=1900
DGENRE=
TTITLE0=El Desesperado
TTITLE1=Gregorio Cortez
TTITLE2=Yo Soy Norteno
TTITLE3=Contrabando del Paso
TTITLE4=Jacinto Trevino
TTITLE5=El Gallito
TTITLE6=Los Dos Hermanos
TTITLE7=Tu Pensabas Hacerme Sufrir
TTITLE8=Por Esos Montes
TTITLE9=Viva El West Side
TTITLE10=No Me Estorbes
TTITLE11=Yo Me Enamore
TTITLE12=Yo Bien Quisiera
TTITLE13=La Chivita
TTITLE14=Borracho Perdido
TTITLE15=En La Sombra
TTITLE16=Benjamin Argumedo
EXTD=
EXTT0=
EXTT1=
EXTT2=
EXTT3=
EXTT4=
EXTT5=
EXTT6=
EXTT7=
EXTT8=
EXTT9=
EXTT10=
EXTT11=
EXTT12=
EXTT13=
EXTT14=
EXTT15=
EXTT16=
PLAYORDER=
